<mxfile host="app.diagrams.net" agent="Mozilla/5.0 (Windows NT 10.0; Win64; x64) AppleWebKit/537.36 (KHTML, like Gecko) Chrome/135.0.0.0 Safari/537.36 Edg/135.0.0.0" version="26.2.13">
  <diagram name="PÃ¡gina-1" id="QUS3v_p811vOgtGeiJzy">
    <mxGraphModel dx="1802" dy="1138" grid="0" gridSize="10" guides="1" tooltips="1" connect="1" arrows="1" fold="1" page="0" pageScale="1" pageWidth="1169" pageHeight="827" math="0" shadow="0">
      <root>
        <mxCell id="0" />
        <mxCell id="1" parent="0" />
        <mxCell id="MqqQ_SZE2UaMrdCu42P1-2" value="Azure Tenant" style="shape=image;verticalLabelPosition=bottom;labelBackgroundColor=default;verticalAlign=top;aspect=fixed;imageAspect=0;image=data:image/png,iVBORw0KGgoAAAANSUhEUgAAAGQAAABkCAYAAABw4pVUAAAAAXNSR0IArs4c6QAAE4ZJREFUeAHtnQlYFFe6hkszYwPdVd1k9CYxkzuJk0nABWVzi0nclR0XVNxX1Mwk48riiriBogiiiOK+IYogm+CGGtcYoxFNbu7NVVwBAcVlJpOJ+t/nnKpTdbqppquhVejbeZ7vOdXQ2HX+l+/7/9MoYRjbf7YK2Cpgq4CtArYK2Cpgq4CtArYK2Cpgq4CtArYK2Cpgq4CtArYK2CpgdgW0fRf3cOwVFdosMHrhBwuyUp3XHi9sufrYCUvKI/9GTJfzT8METety4UlXs2/U2r/gj0Er7bW9Y3J1fZaArlcU6HrOB223CPjL4izocuGpZfTNU+hC6ZPzT4Co89mn2Z3OgL2111nx/hy9lkc7ei0DXd+loOu9CHQ9I0HbfQ5wn04Hly0X6gbECAQM49wT+ETU06WKb9iqn+iVoHL0ia1y9I4Fx77RoOuzGHS9FoC2x1zgPg+F5mPizAdCQ/hGcgJxhAThCXxyVtCZJ1VeeaCy6lor2ZzOLzbQ0ScWsLxpl8wHbdcI0H42DToeKzUNhYKAokksPokm0QmCKwiIs4+hM9KZx9D59OMAJfds1c/R+qzY5eizArC8Y0HnZeCST2eA86oC40AoELWCgEAI+uTUk51WXWxTm3u/a6Sd1nfFI53vSsBCYMReshC0PecB1zUMmo9aqQ+EhqA0ks4+kZxAQeh8GjsDuQM6nX785P91c9f6rRqg843jYYhQYkHrFQ1a0ku6zQbtZzOg49ESo1NS9QZN9QY6kggICgIGcuoxdD71CKvjqYf9TX0jWe3nHX3i9uj8EBBKPitA670MtH2Xgrb3QuB6zgP2s5ngFJtfu75AIKDVCIhOpx5Bp695dT75KNVqC17Txpr7JTto/VY91fmtAl5xIMLxRi6JAW2fRcD1WgBctwh4e+RKCQjdoMXmbDqSaDdgCBQIDOTkI+h04tE/XApK1TXdu1V+TusXP0jnHy/AIFCE1ZdySa+FwHWfA+znM6B9wR3p3CCCoKYk4gYjTkCxRLuBuKITAkHreFWQVRa9pk3pAuL3YSAIChFxi28caH2WUy6JBPbzMPg4Jk84N8hAUBhJRiGcqIJOJ6qgI1qPV+2t6d6t7nNv9V6u5vwTnmr9E0CHRUEhcMResgS43lHAdZ8Nb41YIY6oZFStsS/IRRLtBAoCAtHxOK8Ox6t+6XCukrO6whvbEBeYEKwNWA3agARe/glQDY4fckksaPtGg7b3IuB6zAW2Wyh4HrxttDkrjiTBCTQEAqNjYRUgdTr+KNjY/Vvdx7UBqzN4IAgKkQEcv3jQib2EdwnbNQI+WporARHGVUV9wYgbDEF0LHwIHY89hI6FlfutrvByG2rqv5HVBiT+UxuYCNoAJAKEXgU4vnHAIZd4RQPXBzX32fAfw2LxecHolKQgkqpDQK7gQXQ49hCQ2h+t+sX98AOt3B6s6mNcYOIIbeAawEAQFCI5OP7xwPmuAM47Brg+i4HtGQls13BwzyoWzw3iuGoAAscR1ReUQMAwjj6EDkRHHgy3quLLbYbrn5jFA0FQiCgwtHNQb/HjXcJ5LQW2z0LQdI+ADxdl64+pCIa5kSQ4oRoEBOMIr/ZHKrLk9mA1H9MFxum0/db+S9tvLfAiQOjVAI4f5ZK+yCXzoFlwLA9EMYTqkVQNhAChw5EHgHX4AbQ/XPlrl5wqR6sBYLgRtn/SaK5fEnD91mJJYBAgGgq5Rj0mATjskuXA9V0KbK8FoOkaBm77r+MzgxhFwshKpiR+1e8L1SCIbhAgHEEQKB16AO0LHo4y3IfVPOYGJOVx/ZMAC4NRAAf1FtxLYoHzjga27yLQ9JgNf15wQDw3YCjCuEqaM5qUMAC0kp5AVlk3GIBAMDCQB7lWA4DeiNZnrSPXL+lXrv864CWAQYBMwfE3cEnP+dBsSCw+L0iOMOEGcyBgEJXQvqAS2udX/LtT/qM36b1YxTXbf904bkAycAMIEHo1AScwETjiEq9oYHtHgaZbBLju+xmfGUQnGHVDDZFEnMC7gYeAQBRUgmc+L4+CyrFWAYHehKZfcgEPBEEhoqGQaxk4gWuAw71kJXA+y4HtuwTYnnOgxfwMPpZIFJG1tm6gIBAYngcrwTOvIp/eS4O/ZoOTm3ID1//GDVgPvAgQeiVA6JWCE5AIrP8qYH1jgUUu6RUJTQcvl/pDHSDQbsAgEARKHrnlv7nmlTRr8CDIBjRBG0LYgRuAw1oP3EACBq00FHJNQxGu+/EuYf1WAuu9DDR9FoG6+yxol/rf/JgqjKvVpiQFkaTnBhFEBXIGpfIJZD8NfuUGbjiCgNDCUBAYpXBQ4w+kXOIdDZqe8+CDuenQgR5V0TUNAfcGoUEbiyQjEDzyKsAjl5dbbvnhBg8CbUATtKkZG5TyGxuUAlgDU/TA8M4RwJiCE7gGWP94EF3SOwr+MGgZf3aoAYKpSNJ3ggSBwPDIqQD3nPJnHQ6UvdXgoWgGpnzBBm0EXgKU2sJBIzJxic9y0PRdAuoec6Dtjv8iZwbZKUlJJInFFxyBIPAqB4+ccvDILgf3nIrJDR4IG7SpkB1EgNBrLeD0Twau3xpgAxJ4l/jEgKZXJLw/a58IQiy+MLLSzdnzIN0TKoCOJBEIDSKbB4FhICDZ9481aCDqoM1vs4M2PmMHbQJJNBRybQhHv9/oxVr/JGADVgPrtwpY5JI+C8FxYIx4ZpCbkpREkqEbEAQRRFY5uGPdf+56oLx5g4XCDd78JTt4M7CDkGgo5JoAoVcTcNBUhl2CeskK0HgtBXX3uT955lUU1egGEkVkpZ0gRJI8BAHGgXJwP3AfPA7c/1uDBeIwZMvXmsGbAQmDsQic9cD2TwJNYCJo/OOA9VkG6t5RSz3zK+fWOZJEJ+hDQCCwMu+De2bZyQYJxGH49nc0g7Y81wzeApJqC8fANQOSBSDxoPGNBbV3VJv2ueUfkWgS+0Ft3CA4QR/CfXDLFJRR9rxtdsW7DQ6KOnjbFM2QrcCLhkKuKTg40pTGGhqbkUvWgiZwNWh8466Q4rjnVl4WYdQykmRBZNwHN0ruGaV/J6/ZYFbNkG1nJCAEDFoJEHo1F04KsMgl/daAJmDVPFIUj7yKWXrjquGUpCiSaDfog3DbXwZY6aWnyWs2iNV+yKb3NMFbX2iCt4FmCBENhVzTUMi1EjgbsUs0aOLyX/UxKYpnTlkLcmYw2qBNRpIRCCKMMnDdV/rCNf3en8jr1vtVHbxjuiZ4O/DaBhiMpeEEpYBmQPJFw2J4ZJdfdEdnBnPcQMURjiZSfLKml4Fbehm4Eu1DUMqmGb52vX2sHrrtvASEgEGrJeFsAjYoOdywCO5ZFWEijLq4QR4CAoEcAu3SSs8Zvna9fGw3ZPf76qHbX6iH7gCilwWHC0r50LAI7bNKP3DPLHsh25zRpKTADQZOECG47i0FWp7pZS0MX7/ePVYP2xGqHroTeElQLA1HHbTZ6Heoa1bZeXd8ZiCjqgEIEkVkNeEGGoJrGnYHcgi0SyuZWe8AGN6Qetiub9XDdgKWCAYBsiwc9aAt0w1fmzx2zyybgc8NNbnBHAjIGXogSqHdnlJwSSu5QF6zXq52Q3e2UA/b+UI9bBdIehlwtrywG7rT6JTjmVn5ntv+shfGGrTSSJKDgEC021PCK7UE3NLuV4vNegPHYfjuWerhuwFLDwoBZBk4DkO2mjwHuKWXnZHODbJTknxvkHGCIYR2qSVA5LKrNKLeADC8EfXw1Evq4ak8EAIGrRaGox663eRJ2S29dIrMqCoPwUgk0U4gAPC6uwTaSvrOsA714rFqZOpHDiNSwQEDQVCIBMcQQHWFM2T7c/ugrSbfS3JPL3/HdV/pc35M5UdVveZsFIJ+JNEgKAjQdlcJtN11D6vNrntO9QICfRMOI/fMdRixByQZwjEAU1vnBO9Q/G5ru/SSr9GZQQ9EmkGDxj1BIQTkCgGCuO68B2133ptD16JeXNuNSCtyGJFGATEDzjDlsaYZul3xzyNc95Z+KcKQ7Q1Sc6ad0E6KIz6aKDdgEDwEBALLZftd8Q3OegGDHb3PyWFkGojCYF4CnKE7nzsM2a34J3aeafffbptW8ow/M/Cjak0N2lgkyULYcQ9cRN0F1x0lLesFDHQTDiP3RjqM3AuSlMBJBdRzmkw6DI1mXoJGod8r0W9M+NUHsgq98oCZ8d0DZuq5h8yXJx8yXxyuYsbuf/Rh4rVniiEYjyTeCSIAAcb2u+AiaX79ATJq3zWHUfsoIMrg2I/cC0x4ETDhVy2gImBmXgJm2jfATDkNzN8KgZmQDU0jDokjqhhL5kYSDUICwMPYdhdcsO78WC+AqEdntsEwEBBaeo4hgAycMzINGs28bAEYAtDQy8BM/xaYKWeB+fIEMJMOwu9CMqDtrrsYSl0iiXKCAYi70GYrL5dtpa1fOxSHUekL7Ueng/0oXnpQCKAa4NiNy4JGqJCWcEnYFWBmXARm6jlgvvoamC8OAzMuA/6c8L10bpCfkpREkuAE3hFttkkg2my9A4KiXjsQ+9H7f7QfvR8wFASmFnDsxmbiPlJ3KPKx9YewAv1x1XBKoiNph15fMA1hyx1oI6jV5ts/vVYg6tEZ7XgYCAgtfTDIPaacY4+goO/uujpFLrYmZIDL9jvimIrGVWlCQtcGEFCfEHsD7QR0LQEgINpsvgNErTbeafvaoDiMyVhiPyYDROlBIYCUw0F/TmPUA+oCpVpsHcGx1SLusgGEe/SEVL0vyEUS5QYCAK2tkTYh3YbWG28tfm1A7Edl/I/9mEwJiAXg2I/ZD42nXagDFPnYenNmvgDEwA20E0xBQEAEN2AINAgM4za0Srn9v68FiMP4DHcUM1gYCgJjITij0+GNqedrDyX0e4NpKx/emLAf2my9LbmCBiFMSfy0VHMk6bkBQRBAtN6I3MHLZdNdt1cORTXuQIzd2ANgL8rCcBCUKWdqB4WOrb+jaYuPrQ9iL4q9QXZKUhJJRiC0TrkNSK14Rb9yIHbjsn+2G5sFCArRy4DTaNqF4+b3FPnYcpxxUDwziKMqDUFBJBEX4FUfArTacAur5YZb1xmARq8Miv2Y3A7o/KCnlwPnVy4o/00m/Noys6HIxdb4dGi9+ZY4pspNSUoiSc8NAgQCo9X6WyDI85UBUY3NjrUblw2SLAhndIY0Qo9Kl37XSPjVMLOgGImt92O+5YFQo6rZEFAsGQcBrZJvQct1t5a/IiDQSDU+u9hufA7YjaehkGvLwbEbk6H/23jCiyYxYUXPlYGRia2QHNBNP4gnJWNTkpJIEmFIbuBdgUBg3QTndTdvvZLYsp+Q09lufC7wQBAUIgKEXusAZ/T+fzmGpFX/fVXhV4OZ8Kv/VgRFJrYaj0uHVim3+OlISYOuyQkIiAgBwbgJLddJclpX3Omlu0Q1LneV3YRcwMJgXg4c1djMDKObCSvyYcKv/dMkFBJb084DQ01b/7n0gjiiio4w0qBl3ZBMg5AAiDCSbkLLpJvgnFS80ugeLPKJyMjGTcbn3VFNyAMkEQwCJOuaOsTamKyaf+dh2A+fMWFFj2qGYiS2pubxQMyBoOcG4xAQCKy1N8F5bfFdJhIaW6T2cn+I3fj8T1UhBzEMAoWsloWT+QszLM/0bwUNv+LOhF27XyMUOra+OgnMpHxoPDYdWiYX82eGOkQSdgQBgFYMAYNAMMB5TTG0XHOzi1wtLfKx34fkrcZAEBQiwS0EjJ5zjEZazc5Rjcvcp/iGI644MaFXbxmFYhhbfz2K39t6b9E5/UmJbtAKI8nADTwEAQSCgeSUWJygeC9mPRHFVcjBu6qQfOBFQTEKR+g1YqTJ9ZvqcOzHZg0y695m//AnJuzqT0ahoJ8kTr8g/SQxJAe0U/LIeUFaxQatNJL03UAg4DWxGJwTi8FpdXEJkwZvmLUfJU+2m3Swq2piAagm5vMSwSBAFoQzLvsfzIgC83/3+qyit5iwokuyUKrFVgGgacs56XqNU5KSSJKDgEDwMG6A0+ob4JRw43MlNTbrOapJBfE8EASF6CXAmZCTZtaN0U+OvKRjQq+eqgbFSGz9MepctVG1GgSxNxTLRhIpvriuRq4QQPAwwGnVjXj6Ni1y/ftJhwqbTDoEqolIBAi9KoHDT2d0v1GREVqINfvxeQPrdMOR3zowoVcOVoMiE1tNwwulcwPdnEUIpiOJgKgGIQE7A7kDnBKuF9ZpT3Jf/LvJR7IQEFoWhzM+5wkTku0g9/pmfSzyWhMmomiPHhQUW+LP29G0VQDvRF3gR1QCQ2ZKUhRJxBF6EGggNw6Ydf9KnqyadMQX/R0qSRIcleWcY7n3f4LS3mDCrqwXoRjEVuOvCuGjhJ/pM0PtI8k4COwQ54RiHyU1Nvs5TSYfmddk8uFnEhQCqLZw6GEgN4eZmmbh/7kjNGLCr80X32oRYqvxtLPwXsyP4Mwf3sQzg2I3mADAx9QNcIq//swp4Yb4z7bNLriSL2jy12OtVF8cntpk8tGwJpMPmdbEQ2FNJuYblSqkYKrdhDzLTyH0Zmb+8Bcm/GoIE1q0zG5u0Ya3l1wtfDf62jfNlxRdeHfhdxebR569LKd35p29bEofxl9f8XHCjWhDOcUXT3OO//n1/z0tug62a1sFbBWwVcBWAVsFbBWwVcBWAVsFbBWwVcBWAVsFbBWwVcBWAVsFLFiB/wMWob8lRrN1PwAAAABJRU5ErkJggg==;" vertex="1" parent="1">
          <mxGeometry x="-335" y="-59" width="50" height="50" as="geometry" />
        </mxCell>
        <mxCell id="MqqQ_SZE2UaMrdCu42P1-9" style="edgeStyle=orthogonalEdgeStyle;rounded=0;orthogonalLoop=1;jettySize=auto;html=1;entryX=0.5;entryY=0;entryDx=0;entryDy=0;fontSize=12;startSize=8;endSize=8;" edge="1" parent="1" source="MqqQ_SZE2UaMrdCu42P1-3" target="MqqQ_SZE2UaMrdCu42P1-8">
          <mxGeometry relative="1" as="geometry" />
        </mxCell>
        <mxCell id="MqqQ_SZE2UaMrdCu42P1-3" value="Izipay domain&lt;div&gt;(mc.com.pe)&lt;/div&gt;" style="rounded=1;whiteSpace=wrap;html=1;fillColor=#f8cecc;strokeColor=#b85450;" vertex="1" parent="1">
          <mxGeometry x="-219" y="-62.75" width="101" height="57.5" as="geometry" />
        </mxCell>
        <mxCell id="MqqQ_SZE2UaMrdCu42P1-5" value="" style="endArrow=none;dashed=1;html=1;dashPattern=1 3;strokeWidth=2;rounded=0;fontSize=12;startSize=8;endSize=8;curved=1;exitX=1;exitY=0.5;exitDx=0;exitDy=0;entryX=0;entryY=0.5;entryDx=0;entryDy=0;" edge="1" parent="1" source="MqqQ_SZE2UaMrdCu42P1-2" target="MqqQ_SZE2UaMrdCu42P1-3">
          <mxGeometry width="50" height="50" relative="1" as="geometry">
            <mxPoint x="111" y="239" as="sourcePoint" />
            <mxPoint x="161" y="189" as="targetPoint" />
          </mxGeometry>
        </mxCell>
        <mxCell id="MqqQ_SZE2UaMrdCu42P1-8" value="Izipay Holding Tenant Root" style="shape=image;verticalLabelPosition=bottom;labelBackgroundColor=default;verticalAlign=top;aspect=fixed;imageAspect=0;image=https://code.benco.io/icon-collection/azure-icons/Management-Groups.svg;rotation=0;" vertex="1" parent="1">
          <mxGeometry x="-30" y="46.00331298828124" width="50" height="50" as="geometry" />
        </mxCell>
        <mxCell id="MqqQ_SZE2UaMrdCu42P1-10" value="mg-data-platform" style="shape=image;verticalLabelPosition=bottom;labelBackgroundColor=default;verticalAlign=top;aspect=fixed;imageAspect=0;image=https://code.benco.io/icon-collection/azure-icons/Management-Groups.svg;rotation=0;" vertex="1" parent="1">
          <mxGeometry x="-374" y="182.00331298828124" width="50" height="50" as="geometry" />
        </mxCell>
        <mxCell id="MqqQ_SZE2UaMrdCu42P1-11" value="mg-gen-ai" style="shape=image;verticalLabelPosition=bottom;labelBackgroundColor=default;verticalAlign=top;aspect=fixed;imageAspect=0;image=https://code.benco.io/icon-collection/azure-icons/Management-Groups.svg;rotation=0;" vertex="1" parent="1">
          <mxGeometry x="-35" y="182.00331298828124" width="50" height="50" as="geometry" />
        </mxCell>
        <mxCell id="MqqQ_SZE2UaMrdCu42P1-14" value="mg-infraestructure" style="shape=image;verticalLabelPosition=bottom;labelBackgroundColor=default;verticalAlign=top;aspect=fixed;imageAspect=0;image=https://code.benco.io/icon-collection/azure-icons/Management-Groups.svg;rotation=0;" vertex="1" parent="1">
          <mxGeometry x="348" y="173.00331298828124" width="50" height="50" as="geometry" />
        </mxCell>
        <mxCell id="MqqQ_SZE2UaMrdCu42P1-15" value="dev-mg-datalakehouse" style="shape=image;verticalLabelPosition=bottom;labelBackgroundColor=default;verticalAlign=top;aspect=fixed;imageAspect=0;image=https://code.benco.io/icon-collection/azure-icons/Management-Groups.svg;rotation=0;" vertex="1" parent="1">
          <mxGeometry x="-476" y="319.0033129882812" width="50" height="50" as="geometry" />
        </mxCell>
        <mxCell id="MqqQ_SZE2UaMrdCu42P1-16" value="prd-mg-datalakehouse" style="shape=image;verticalLabelPosition=bottom;labelBackgroundColor=default;verticalAlign=top;aspect=fixed;imageAspect=0;image=https://code.benco.io/icon-collection/azure-icons/Management-Groups.svg;rotation=0;" vertex="1" parent="1">
          <mxGeometry x="-304" y="319.0033129882812" width="50" height="50" as="geometry" />
        </mxCell>
        <mxCell id="MqqQ_SZE2UaMrdCu42P1-17" value="dev-mg-gen-ai" style="shape=image;verticalLabelPosition=bottom;labelBackgroundColor=default;verticalAlign=top;aspect=fixed;imageAspect=0;image=https://code.benco.io/icon-collection/azure-icons/Management-Groups.svg;rotation=0;" vertex="1" parent="1">
          <mxGeometry x="-132" y="321.0033129882812" width="50" height="50" as="geometry" />
        </mxCell>
        <mxCell id="MqqQ_SZE2UaMrdCu42P1-18" value="prd-mg-gen-ai" style="shape=image;verticalLabelPosition=bottom;labelBackgroundColor=default;verticalAlign=top;aspect=fixed;imageAspect=0;image=https://code.benco.io/icon-collection/azure-icons/Management-Groups.svg;rotation=0;" vertex="1" parent="1">
          <mxGeometry x="40" y="321.0033129882812" width="50" height="50" as="geometry" />
        </mxCell>
        <mxCell id="MqqQ_SZE2UaMrdCu42P1-19" value="mg-monitoring" style="shape=image;verticalLabelPosition=bottom;labelBackgroundColor=default;verticalAlign=top;aspect=fixed;imageAspect=0;image=https://code.benco.io/icon-collection/azure-icons/Management-Groups.svg;rotation=0;" vertex="1" parent="1">
          <mxGeometry x="191" y="315.0033129882812" width="50" height="50" as="geometry" />
        </mxCell>
        <mxCell id="MqqQ_SZE2UaMrdCu42P1-20" value="mg-billing" style="shape=image;verticalLabelPosition=bottom;labelBackgroundColor=default;verticalAlign=top;aspect=fixed;imageAspect=0;image=https://code.benco.io/icon-collection/azure-icons/Management-Groups.svg;rotation=0;" vertex="1" parent="1">
          <mxGeometry x="339" y="319.0033129882812" width="50" height="50" as="geometry" />
        </mxCell>
        <mxCell id="MqqQ_SZE2UaMrdCu42P1-21" value="mg-devops" style="shape=image;verticalLabelPosition=bottom;labelBackgroundColor=default;verticalAlign=top;aspect=fixed;imageAspect=0;image=https://code.benco.io/icon-collection/azure-icons/Management-Groups.svg;rotation=0;" vertex="1" parent="1">
          <mxGeometry x="472" y="315.0033129882812" width="50" height="50" as="geometry" />
        </mxCell>
      </root>
    </mxGraphModel>
  </diagram>
</mxfile>
